<svg width="25" height="24" viewBox="0 0 25 24" fill="none" xmlns="http://www.w3.org/2000/svg">
<g id="uis:chart">
<path id="Vector" d="M20.2 1H4.8C2.93 1 1.5 2.43 1.5 4.3V19.7C1.5 21.57 2.93 23 4.8 23H20.2C22.07 23 23.5 21.57 23.5 19.7V4.3C23.5 2.43 22.07 1 20.2 1ZM8.1 17.5C8.1 18.16 7.66 18.6 7 18.6C6.34 18.6 5.9 18.16 5.9 17.5V13.1C5.9 12.44 6.34 12 7 12C7.66 12 8.1 12.44 8.1 13.1V17.5ZM13.6 17.5C13.6 18.16 13.16 18.6 12.5 18.6C11.84 18.6 11.4 18.16 11.4 17.5V6.5C11.4 5.84 11.84 5.4 12.5 5.4C13.16 5.4 13.6 5.84 13.6 6.5V17.5ZM19.1 17.5C19.1 18.16 18.66 18.6 18 18.6C17.34 18.6 16.9 18.16 16.9 17.5V10.9C16.9 10.24 17.34 9.8 18 9.8C18.66 9.8 19.1 10.24 19.1 10.9V17.5Z" fill="white"/>
</g>
</svg>
