<svg width="645" height="166" viewBox="0 0 645 166" fill="none" xmlns="http://www.w3.org/2000/svg">
<path d="M9.03438 14.5H31.4744L52.2644 75.66L73.0544 14.5H95.4944V23.3H87.7944V88.2H95.4944V97H69.9744V88.2H77.6744V29.13L57.1044 88.2H47.4244L26.8544 29.13V88.2H34.5544V97H9.03438V88.2H16.7344V23.3H9.03438V14.5ZM113.126 14.5H165.486V36.06H156.686V23.3H130.946V51.35H156.686V60.15H130.946V88.2H156.686V75.44H165.486V97H113.126V88.2H120.826V23.3H113.126V14.5ZM222.218 97H190.098V88.2H201.098V23.3H184.818V36.06H176.458V14.5H235.858V36.06H227.498V23.3H211.218V88.2H222.218V97ZM256.186 14.5H285.556V23.3H280.496L299.856 88.2H305.356V97H282.036V88.2H289.736L284.676 71.26H257.066L252.006 88.2H259.706V97H236.386V88.2H241.886L261.246 23.3H256.186V14.5ZM270.816 24.95L259.706 62.46H282.036L270.816 24.95ZM303.753 23.3V14.5H327.073V23.3H319.483L339.283 86.99L359.193 23.3H351.603V14.5H374.923V23.3H369.313L346.323 97H332.353L309.363 23.3H303.753ZM393.042 14.5H422.412V23.3H417.352L436.712 88.2H442.212V97H418.892V88.2H426.592L421.532 71.26H393.922L388.862 88.2H396.562V97H373.242V88.2H378.742L398.102 23.3H393.042V14.5ZM407.672 24.95L396.562 62.46H418.892L407.672 24.95ZM493.167 14.5H517.587V23.3H510.987V84.9L499.547 97H469.627L458.187 84.9V23.3H451.587V14.5H476.007V23.3H468.307V81.71L473.917 87.54H495.147L500.867 81.71V23.3H493.167V14.5ZM534.113 14.5H560.733V23.3H551.933V88.2H575.913V75.44H584.273V97H534.113V88.2H541.813V23.3H534.113V14.5ZM628.917 97H596.797V88.2H607.797V23.3H591.517V36.06H583.157V14.5H642.557V36.06H634.197V23.3H617.917V88.2H628.917V97Z" fill="url(#paint0_linear_84_353)"/>
<path d="M147.179 157.48H150.259V161H140.051V157.48H143.131V131.52H140.051V128H149.203L162.051 156.028V131.52H158.971V128H169.179V131.52H166.099V161H160.027L147.179 133.016V157.48ZM175.758 128H196.702V136.624H193.182V131.52H182.886V142.74H193.182V146.26H182.886V157.48H186.406V161H175.758V157.48H178.838V131.52H175.758V128ZM217.633 161H204.785V157.48H209.185V131.52H202.673V136.624H199.329V128H223.089V136.624H219.745V131.52H213.233V157.48H217.633V161ZM262.235 138.384H258.583V134.512L255.943 131.784H249.211L246.923 134.116V140.188L249.079 142.388H258.231L262.675 147.052V156.16L258.099 161H247.011L242.435 156.16V150.616H246.087V154.488L248.771 157.216H256.383L258.627 154.884V148.328L256.515 146.172H247.363L242.875 141.464V132.84L247.451 128H257.659L262.235 132.84V138.384ZM273.834 161L269.258 156.16V132.84L273.834 128H286.242L290.818 132.84V156.16L286.242 161H273.834ZM275.55 157.216H284.482L286.77 154.884V134.116L284.526 131.784H275.594L273.306 134.116V154.884L275.55 157.216ZM297.875 128H308.523V131.52H305.003V157.48H314.595V152.376H317.939V161H297.875V157.48H300.955V131.52H297.875V128ZM335.068 131.52V128H344.396V131.52H341.14L347.52 156.16L353.9 131.52H352.008V128H361.512V131.52H359.576L365.956 156.16L372.336 131.52H369.124V128H378.452V131.52H376.384L368.772 161H363.36L356.76 135.524L350.16 161H344.748L337.091 131.52H335.068ZM385.736 128H397.484V131.52H395.46L403.204 157.48H405.404V161H396.076V157.48H399.156L397.132 150.704H386.088L384.064 157.48H387.144V161H377.816V157.48H380.016L387.76 131.52H385.736V128ZM391.588 132.18L387.144 147.184H396.076L391.588 132.18ZM409.594 128H420.242V131.52H416.722V157.48H426.314V152.376H429.658V161H409.594V157.48H412.674V131.52H409.594V128ZM434.043 128H444.691V131.52H441.171V157.48H450.763V152.376H454.107V161H434.043V157.48H437.123V131.52H434.043V128ZM458.493 128H479.437V136.624H475.917V131.52H465.621V142.74H475.917V146.26H465.621V157.48H475.917V152.376H479.437V161H458.493V157.48H461.573V131.52H458.493V128ZM502.129 161H489.281V157.48H493.681V131.52H487.169V136.624H483.825V128H507.585V136.624H504.241V131.52H497.729V157.48H502.129V161Z" fill="white"/>
<defs>
<linearGradient id="paint0_linear_84_353" x1="7.20844e-06" y1="110" x2="615.812" y2="-89.9113" gradientUnits="userSpaceOnUse">
<stop stop-color="#E184F0"/>
<stop offset="1" stop-color="#CB54DE"/>
</linearGradient>
</defs>
</svg>
