<svg width="25" height="24" viewBox="0 0 25 24" fill="none" xmlns="http://www.w3.org/2000/svg">
<g id="Frame 14">
<path id="Exclude" fill-rule="evenodd" clip-rule="evenodd" d="M4.8 1.5H20.2C22.07 1.5 23.5 2.93 23.5 4.8V20.2C23.5 22.07 22.07 23.5 20.2 23.5H4.8C2.93 23.5 1.5 22.07 1.5 20.2V4.8C1.5 2.93 2.93 1.5 4.8 1.5ZM13.7894 7.03724C13.0398 7.2124 12.7609 8.13335 13.2874 8.69495L13.6634 9.096C14.0411 9.49891 14.0207 10.1317 13.6178 10.5095L5.19781 18.4032C4.9208 18.6629 4.90677 19.098 5.16646 19.375C5.42615 19.652 5.86122 19.666 6.13822 19.4063L14.5582 11.5126C14.9611 11.1349 15.594 11.1553 15.9717 11.5582L16.3477 11.9592C16.8742 12.5208 17.8112 12.3019 18.0343 11.5651L19.3311 7.28271C19.5542 6.54595 18.8961 5.84395 18.1465 6.01911L13.7894 7.03724Z" fill="white"/>
</g>
</svg>
